<?xml version="1.0" encoding="utf-8"?>
<!-- Generator: Adobe Illustrator 22.0.1, SVG Export Plug-In . SVG Version: 6.00 Build 0)  -->
<svg version="1.1" id="Capa_1" xmlns="http://www.w3.org/2000/svg" xmlns:xlink="http://www.w3.org/1999/xlink" x="0px" y="0px"
	 viewBox="0 0 1275.6 612" style="enable-background:new 0 0 1275.6 612;" xml:space="preserve">
<style type="text/css">
	.st0{fill-rule:evenodd;clip-rule:evenodd;fill:none;stroke:#399742;stroke-width:0.5;stroke-miterlimit:10;}
	.st1{fill-rule:evenodd;clip-rule:evenodd;fill:none;stroke:#142726;stroke-width:0.5;stroke-miterlimit:10;}
	.st2{fill-rule:evenodd;clip-rule:evenodd;fill:none;stroke:#C23133;stroke-width:0.5;stroke-miterlimit:10;}
</style>
<rect x="591.7" y="95.9" class="st0" width="90.7" height="90.7"/>
<polygon class="st0" points="600,322.7 600.8,315.3 602.9,308.3 606.3,302.1 610.8,296.6 616.3,292.1 622.5,288.7 629.4,286.6 
	636.9,285.9 644.3,286.6 651.2,288.7 657.4,292.1 662.9,296.6 667.4,302.1 670.8,308.3 672.9,315.3 673.7,322.7 672.9,330.1 
	670.8,337.1 667.4,343.3 662.9,348.7 657.4,353.2 651.2,356.7 644.3,358.8 636.9,359.5 629.4,358.8 622.5,356.7 616.3,353.2 
	610.8,348.7 606.3,343.3 602.9,337.1 600.8,330.1 "/>
<polygon class="st1" points="727.7,390.7 727.2,390.7 725.9,390.7 721.3,390.7 715.7,390.7 710.8,390.7 709,390.7 708,390.7 
	707.9,391.1 707.9,392.8 707.9,395.1 707.9,397.4 707.9,398.9 707.5,399.2 706.4,399.2 704.7,399.2 695.6,399.2 692,399.2 
	691.1,399.2 690.8,399.2 690.8,398.1 690.8,396.1 690.8,391.7 690.8,390.7 690.6,390.7 689.6,390.7 685.9,390.7 681.1,390.7 
	676.8,390.7 675.2,390.7 674.1,390.7 673.9,391 673.9,392.6 673.9,397.1 673.9,398.9 673.7,399.2 672.7,399.2 671.2,399.2 
	666.8,399.2 662.1,399.2 658.3,399.2 657.2,399.2 656.9,399.2 656.9,398.3 656.9,394 656.9,391.8 656.9,390.8 656.7,390.7 
	655.7,390.7 653.9,390.7 651.7,390.7 641,390.7 638.9,390.7 637.5,390.7 636.5,390.7 635.2,390.7 633.1,390.7 627.9,390.7 
	622.4,390.7 620.1,390.7 618.4,390.7 617.3,390.7 617.1,390.7 617.1,391.8 617.1,396.3 617.1,398.3 617.1,399.2 616.8,399.2 
	615.7,399.2 612,399.2 607.3,399.2 602.9,399.2 601.3,399.2 600.4,399.2 600.1,398.9 600.1,397.2 600.1,394.9 600.1,392.6 
	600.1,391 599.9,390.7 598.9,390.7 597.3,390.7 588.1,390.7 584.5,390.7 583.4,390.7 583.2,390.7 583.2,391.7 583.2,393.6 
	583.2,398.1 583.2,399.2 582.9,399.2 582,399.2 578.4,399.2 573.8,399.2 569.3,399.2 567.6,399.2 566.5,399.2 566.1,398.9 
	566.1,397.5 566.1,392.8 566.1,391.1 566,390.7 565,390.7 563.2,390.7 558.3,390.7 552.7,390.7 548.2,390.7 546.8,390.7 
	546.3,390.7 542.1,390.4 533.9,388.8 526.1,385.6 519.1,380.9 513.2,374.8 508.6,367.8 505.5,360 503.9,351.7 503.8,349.6 
	503.8,348.6 503.7,348.1 503.7,346.8 503.7,344.1 503.7,340.6 503.7,336.3 503.7,327.2 503.7,322.9 503.7,319.4 503.7,316.8 
	503.7,315.7 503.2,315.6 501.3,315.6 496.7,315.6 495.4,315.6 495.2,315.6 495.2,315 495.2,313.7 495.2,311.8 495.2,307.2 
	495.2,302.7 495.2,300.7 495.2,299.3 495.2,298.6 495.3,298.6 496.6,298.6 501.1,298.6 503,298.6 503.7,298.6 503.7,298.1 
	503.7,296.9 503.7,292.9 503.7,288.1 503.7,283.9 503.7,282.4 503.7,281.7 503.3,281.5 501.5,281.5 499.2,281.5 497,281.5 
	495.5,281.5 495.2,281.1 495.2,280 495.2,278.3 495.2,269.1 495.2,265.6 495.2,264.7 495.3,264.5 496.4,264.5 498.5,264.5 
	502.8,264.5 503.7,264.5 503.7,264.2 503.7,263.2 503.7,259.4 503.7,254.7 503.7,250.3 503.7,248.7 503.7,247.7 503.4,247.6 
	501.8,247.6 497.2,247.6 495.6,247.6 495.2,247.3 495.2,246.3 495.2,244.7 495.2,240.3 495.2,235.6 495.2,231.9 495.2,230.8 
	495.2,230.6 496.2,230.6 500.6,230.6 502.7,230.6 503.7,230.6 503.7,230.3 503.7,229.4 503.7,225.9 503.7,216.7 503.7,215.1 
	503.7,213.9 503.5,213.5 502,213.5 499.7,213.5 497.5,213.5 495.7,213.5 495.2,213.4 495.2,212.6 495.2,211.1 495.2,206.9 
	495.2,202.1 495.2,198.2 495.2,197 495.2,196.5 496.1,196.5 497.9,196.5 502.5,196.5 503.7,196.5 503.7,196.4 503.7,195.7 
	503.7,194.2 503.7,192.4 503.7,187.7 503.7,183.1 503.7,181.3 503.7,180.1 503.7,179.5 503.7,179.5 502.3,179.5 497.7,179.5 
	495.9,179.5 495.2,179.5 495.2,178.8 495.2,177.5 495.2,173.3 495.2,168.6 495.2,164.5 495.2,163.2 495.2,162.6 495.9,162.5 
	497.7,162.5 500.1,162.5 502.3,162.5 503.7,162.5 503.7,162.5 503.7,161.9 503.7,160.6 503.7,158.8 503.7,149.6 503.7,147.7 
	503.7,146.3 503.7,145.6 503.7,145.5 502.4,145.5 500.3,145.5 496.1,145.5 495.2,145.5 495.2,145 495.2,143.8 495.2,139.9 
	495.2,135.1 495.2,130.9 495.2,129.4 495.2,128.6 495.7,128.5 497.5,128.5 502,128.5 503.6,128.5 503.7,128.5 503.7,127.8 
	503.7,125.6 503.7,122.3 503.7,113.7 503.7,104.7 503.7,100.9 503.7,97.9 503.7,96.2 503.7,95.9 503.8,95 504.1,90.9 505.9,82.6 
	509.3,74.9 514.2,68 520.2,62.3 527.4,57.8 535.3,54.8 543.6,53.5 545.7,53.4 546.4,53.4 546.7,53.4 548.6,53.4 551.4,53.4 
	555.2,53.4 559.4,53.4 568.1,53.4 571.9,53.4 575,53.4 577,53.4 577.5,53.4 577.5,52.4 577.5,50.5 577.5,46 577.5,44.9 577.6,44.9 
	578.5,44.9 582.1,44.9 586.8,44.9 591.3,44.9 593,44.9 594.1,44.9 594.5,45.1 594.5,46.6 594.5,51.2 594.5,52.9 594.6,53.4 
	595.4,53.4 596.9,53.4 601.1,53.4 605.9,53.4 609.8,53.4 611,53.4 611.5,53.4 611.5,52.7 611.5,48.3 611.5,46.2 611.5,45 
	611.6,44.9 612.3,44.9 613.7,44.9 615.6,44.9 624.8,44.9 626.6,44.9 627.9,44.9 628.5,44.9 628.5,45 628.5,46.4 628.5,48.6 
	628.5,50.9 628.5,52.7 628.6,53.4 629.2,53.4 630.5,53.4 634.6,53.4 639.3,53.4 643.5,53.4 644.8,53.4 645.5,53.4 645.5,52.7 
	645.5,50.9 645.5,46.4 645.5,45 645.5,44.9 646.1,44.9 647.3,44.9 649.1,44.9 653.7,44.9 658.4,44.9 660.3,44.9 661.7,44.9 
	662.4,44.9 662.5,45 662.5,46.1 662.5,50.7 662.5,52.6 662.5,53.4 663,53.4 664.2,53.4 668.1,53.4 672.9,53.4 677,53.4 678.6,53.4 
	679.4,53.4 679.5,52.9 679.5,51.2 679.5,48.9 679.5,46.6 679.5,45.1 679.9,44.9 681,44.9 682.8,44.9 691.9,44.9 695.4,44.9 
	696.4,44.9 696.6,44.9 696.6,46 696.6,48 696.6,52.4 696.6,53.4 697,53.4 699,53.4 702,53.4 705.8,53.4 714.5,53.4 718.8,53.4 
	722.5,53.4 725.5,53.4 727.3,53.4 727.7,53.4 728.2,53.4 730.4,53.5 734.6,54 742.7,56.1 750.3,59.8 756.9,65 762.4,71.4 
	766.6,78.7 769.2,86.6 770.2,95 770.2,95.9 770.2,96.2 770.2,97.9 770.2,100.8 770.2,104.6 770.2,113.6 770.2,122.2 770.2,125.5 
	770.2,127.7 770.2,128.5 770.4,128.5 771.9,128.5 774.2,128.5 776.6,128.5 778.3,128.5 778.8,128.6 778.8,129.4 778.8,130.9 
	778.8,135 778.8,139.9 778.8,143.8 778.8,145 778.8,145.5 778,145.5 776.1,145.5 771.6,145.5 770.4,145.5 770.2,145.6 770.2,146.3 
	770.2,147.7 770.2,149.6 770.2,154.2 770.2,158.8 770.2,160.6 770.2,161.9 770.2,162.5 770.4,162.5 771.7,162.5 776.2,162.5 
	778.1,162.5 778.8,162.6 778.8,163.1 778.8,164.5 778.8,168.5 778.8,173.3 778.8,177.4 778.8,178.8 778.8,179.5 778.1,179.5 
	776.3,179.5 773.9,179.5 771.7,179.5 770.4,179.5 770.2,179.5 770.2,180 770.2,181.3 770.2,183.1 770.2,192.3 770.2,194.2 
	770.2,195.7 770.2,196.4 770.3,196.5 771.5,196.5 773.6,196.5 777.9,196.5 778.8,196.5 778.8,196.9 778.8,198.2 778.8,202.1 
	778.8,206.8 778.8,211.1 778.8,212.5 778.8,213.4 778.3,213.5 776.6,213.5 772,213.5 770.5,213.5 770.2,213.9 770.2,215 
	770.2,216.7 770.2,221.1 770.2,225.8 770.2,229.4 770.2,230.3 770.3,230.6 771.3,230.6 775.7,230.6 777.8,230.6 778.8,230.6 
	778.8,230.8 778.8,231.9 778.8,235.6 778.8,244.6 778.8,246.2 778.8,247.3 778.4,247.6 776.8,247.6 774.5,247.6 772.2,247.6 
	770.6,247.6 770.2,247.7 770.2,248.7 770.2,250.2 770.2,254.6 770.2,259.3 770.2,263.2 770.2,264.2 770.2,264.5 771.1,264.5 
	773.1,264.5 777.6,264.5 778.7,264.5 778.8,264.7 778.8,265.6 778.8,269 778.8,273.8 778.8,278.3 778.8,280 778.8,281.1 
	778.8,281.5 778.5,281.5 777.1,281.5 772.5,281.5 770.8,281.5 770.2,281.7 770.2,282.4 770.2,283.9 770.2,288.1 770.2,292.9 
	770.2,296.8 770.2,298 770.2,298.6 770.9,298.6 772.9,298.6 775.3,298.6 777.4,298.6 778.6,298.6 778.8,298.6 778.8,299.3 
	778.8,300.7 778.8,302.6 778.8,311.8 778.8,313.6 778.8,314.9 778.8,315.6 778.6,315.6 777.3,315.6 775.1,315.6 772.7,315.6 
	770.8,315.6 770.2,315.7 770.2,316.8 770.2,319.3 770.2,322.8 770.2,327.1 770.2,336.2 770.2,340.5 770.2,344.1 770.2,346.8 
	770.2,348.1 770.2,348.6 770.2,349.6 770.1,351.7 769.5,355.9 767.2,363.9 763.3,371.4 758,378 751.6,383.3 744.2,387.4 
	736.1,389.9 "/>
<polygon class="st2" points="648.4,206.7 646.8,208.4 646.8,210.5 643.9,210.5 643.9,195.6 646.8,195.6 646.8,204.6 650.7,200.4 
	654.3,200.4 650.4,204.6 654.8,210.5 651.1,210.5 "/>
<polygon class="st2" points="609.9,207 609.9,207.2 610,207.4 610,207.5 610.1,207.7 610.2,207.8 610.3,208 610.5,208.1 
	610.6,208.2 610.8,208.3 610.9,208.3 611.1,208.4 611.3,208.4 611.5,208.5 611.7,208.5 612,208.5 612.2,208.5 612.4,208.5 
	612.5,208.5 612.7,208.4 612.9,208.4 613,208.3 613.2,208.3 613.3,208.2 613.4,208.2 613.5,208.1 613.5,208 613.6,207.9 
	613.7,207.8 613.7,207.7 613.7,207.6 613.7,207.6 613.7,207.5 613.6,207.4 613.6,207.3 613.6,207.2 613.5,207.2 613.5,207.1 
	613.4,207.1 613.3,207 613.2,207 613.1,206.9 613,206.9 612.9,206.9 612.8,206.8 612.7,206.8 612.7,206.8 612.6,206.8 612.5,206.8 
	612.3,206.7 612.1,206.7 611.9,206.7 611.7,206.6 611.5,206.6 611.3,206.6 611.1,206.5 610.9,206.5 610.8,206.5 610.6,206.5 
	610.6,206.4 610.5,206.4 610.2,206.4 609.9,206.3 609.6,206.2 609.3,206.1 609,205.9 608.7,205.8 608.5,205.6 608.3,205.4 
	608.1,205.2 608,204.9 607.8,204.7 607.7,204.4 607.6,204.1 607.6,203.8 607.6,203.5 607.6,203.1 607.7,202.7 607.8,202.3 
	607.9,202 608.1,201.7 608.4,201.4 608.6,201.2 608.9,200.9 609.3,200.7 609.6,200.6 610,200.4 610.5,200.3 610.9,200.2 
	611.4,200.2 611.9,200.1 612.1,200.1 612.3,200.2 612.5,200.2 612.7,200.2 612.9,200.2 613.1,200.2 613.2,200.3 613.4,200.3 
	613.6,200.4 613.8,200.4 614,200.5 614.2,200.5 614.3,200.6 614.5,200.7 614.7,200.8 614.9,200.9 615.1,201 615.2,201.1 
	615.4,201.3 615.6,201.4 615.7,201.6 615.8,201.8 616,201.9 616.1,202.1 616.2,202.4 616.2,202.6 616.3,202.8 616.4,203 
	616.4,203.3 616.4,203.6 616.4,203.6 616.3,203.6 616.2,203.6 616,203.6 615.7,203.6 615.5,203.6 615.2,203.6 615,203.6 
	614.7,203.6 614.5,203.6 614.2,203.6 614,203.6 613.9,203.6 613.8,203.6 613.8,203.6 613.7,203.4 613.7,203.3 613.7,203.1 
	613.6,203 613.5,202.9 613.4,202.8 613.3,202.7 613.1,202.6 613,202.5 612.8,202.5 612.7,202.4 612.5,202.4 612.3,202.3 
	612.1,202.3 611.9,202.3 611.7,202.3 611.6,202.3 611.4,202.4 611.3,202.4 611.1,202.4 611,202.5 610.9,202.5 610.8,202.6 
	610.7,202.7 610.6,202.7 610.5,202.8 610.5,202.9 610.5,203 610.4,203.1 610.4,203.2 610.4,203.3 610.5,203.4 610.5,203.5 
	610.5,203.5 610.6,203.6 610.6,203.7 610.7,203.8 610.8,203.8 610.9,203.9 611,203.9 611.1,204 611.2,204 611.3,204.1 611.5,204.1 
	611.6,204.1 611.7,204.1 611.7,204.1 611.8,204.2 612,204.2 612.1,204.2 612.3,204.2 612.5,204.3 612.6,204.3 612.8,204.3 
	613,204.4 613.1,204.4 613.3,204.4 613.4,204.4 613.4,204.4 613.5,204.4 613.9,204.5 614.2,204.6 614.6,204.7 614.9,204.8 
	615.2,205 615.4,205.1 615.6,205.3 615.8,205.5 616,205.7 616.2,206 616.3,206.2 616.4,206.5 616.4,206.8 616.5,207.1 616.5,207.4 
	616.5,207.8 616.4,208.2 616.3,208.6 616.1,208.9 615.9,209.2 615.7,209.5 615.4,209.8 615.1,210 614.7,210.2 614.3,210.4 
	613.9,210.5 613.5,210.6 613,210.7 612.5,210.8 612,210.8 611.7,210.8 611.5,210.8 611.2,210.8 611,210.7 610.7,210.7 610.5,210.6 
	610.3,210.6 610.1,210.5 609.8,210.5 609.6,210.4 609.4,210.3 609.2,210.2 609.1,210.1 608.9,210 608.7,209.9 608.5,209.8 
	608.4,209.6 608.2,209.5 608.1,209.3 607.9,209.2 607.8,209 607.7,208.8 607.6,208.6 607.5,208.4 607.5,208.2 607.4,208 
	607.3,207.7 607.3,207.5 607.2,207.2 607.2,207 607.3,207 607.3,207 607.5,207 607.7,207 607.9,207 608.2,207 608.4,207 608.7,207 
	608.9,207 609.2,207 609.4,207 609.6,207 609.8,207 609.9,207 "/>
<polygon class="st2" points="627.4,201.4 627.5,201.6 627.7,201.8 627.8,202 627.9,202.2 628.1,202.4 628.2,202.6 628.3,202.9 
	628.3,203.1 628.4,203.3 628.5,203.6 628.5,203.8 628.5,204.1 628.6,204.4 628.6,204.7 628.6,205 628.6,205 628.6,205.2 
	628.6,205.5 628.6,205.9 628.6,206.4 628.6,206.9 628.6,207.4 628.6,208 628.6,208.5 628.6,209 628.6,209.5 628.6,209.9 
	628.6,210.2 628.6,210.4 628.6,210.5 628.6,210.5 628.5,210.5 628.3,210.5 628.1,210.5 627.8,210.5 627.6,210.5 627.3,210.5 
	627,210.5 626.7,210.5 626.4,210.5 626.2,210.5 626,210.5 625.8,210.5 625.7,210.5 625.7,210.5 625.7,210.4 625.7,210.2 
	625.7,209.9 625.7,209.5 625.7,209.1 625.7,208.6 625.7,208.1 625.7,207.6 625.7,207.1 625.7,206.6 625.7,206.1 625.7,205.8 
	625.7,205.5 625.7,205.3 625.7,205.2 625.7,204.9 625.6,204.6 625.6,204.3 625.5,204.1 625.4,203.9 625.3,203.6 625.2,203.5 
	625,203.3 624.9,203.2 624.7,203 624.5,202.9 624.3,202.8 624,202.8 623.8,202.8 623.5,202.7 623.4,202.8 623.2,202.8 623.1,202.8 
	622.9,202.8 622.8,202.9 622.6,202.9 622.5,203 622.3,203.1 622.2,203.2 622,203.3 621.9,203.4 621.7,203.6 621.6,203.7 
	621.5,203.8 621.3,204 621.3,204.1 621.3,204.3 621.3,204.7 621.3,205.1 621.3,205.7 621.3,206.3 621.3,206.9 621.3,207.6 
	621.3,208.2 621.3,208.8 621.3,209.3 621.3,209.8 621.3,210.2 621.3,210.4 621.3,210.5 621.3,210.5 621.2,210.5 621,210.5 
	620.8,210.5 620.6,210.5 620.3,210.5 620,210.5 619.7,210.5 619.4,210.5 619.1,210.5 618.9,210.5 618.7,210.5 618.5,210.5 
	618.4,210.5 618.4,210.5 618.4,210.3 618.4,210 618.4,209.4 618.4,208.7 618.4,207.9 618.4,206.9 618.4,205.9 618.4,204.9 
	618.4,204 618.4,203 618.4,202.2 618.4,201.5 618.4,200.9 618.4,200.5 618.4,200.4 618.4,200.4 618.5,200.4 618.7,200.4 
	618.9,200.4 619.1,200.4 619.4,200.4 619.7,200.4 620,200.4 620.3,200.4 620.6,200.4 620.8,200.4 621,200.4 621.2,200.4 
	621.3,200.4 621.3,200.4 621.3,200.4 621.3,200.5 621.3,200.5 621.3,200.5 621.3,200.6 621.3,200.7 621.3,200.7 621.3,200.8 
	621.3,200.9 621.3,200.9 621.3,201 621.3,201.1 621.3,201.1 621.3,201.1 621.3,201.1 621.5,201 621.7,200.9 621.8,200.8 622,200.7 
	622.2,200.6 622.4,200.5 622.6,200.4 622.8,200.3 623,200.3 623.2,200.2 623.4,200.2 623.6,200.1 623.8,200.1 624,200.1 
	624.2,200.1 624.4,200.1 624.7,200.1 625,200.2 625.2,200.2 625.4,200.2 625.7,200.3 625.9,200.4 626.1,200.5 626.3,200.6 
	626.5,200.7 626.7,200.8 626.9,200.9 627,201.1 627.2,201.3 "/>
<polygon class="st2" points="641.3,210.5 641.3,210.5 641.2,210.5 641,210.5 640.8,210.5 640.6,210.5 640.3,210.5 640,210.5 
	639.7,210.5 639.4,210.5 639.2,210.5 638.9,210.5 638.7,210.5 638.5,210.5 638.4,210.5 638.4,210.5 638.4,210.5 638.4,210.4 
	638.4,210.4 638.4,210.4 638.4,210.3 638.4,210.3 638.4,210.2 638.4,210.2 638.4,210.1 638.4,210 638.4,210 638.4,209.9 
	638.4,209.9 638.4,209.9 638.4,209.9 638.2,210 638.1,210.1 637.9,210.2 637.7,210.3 637.5,210.3 637.4,210.4 637.2,210.5 
	637,210.5 636.8,210.6 636.6,210.6 636.4,210.6 636.2,210.7 636,210.7 635.8,210.7 635.5,210.7 635.3,210.7 635,210.7 634.7,210.6 
	634.5,210.6 634.2,210.5 634,210.4 633.7,210.4 633.5,210.3 633.3,210.1 633.1,210 632.8,209.9 632.6,209.7 632.4,209.5 
	632.2,209.4 632,209.2 631.8,209 631.6,208.7 631.5,208.5 631.3,208.3 631.2,208.1 631.1,207.8 630.9,207.6 630.8,207.3 
	630.8,207.1 630.7,206.8 630.6,206.6 630.6,206.3 630.6,206 630.5,205.7 630.5,205.5 630.5,205.2 630.6,204.9 630.6,204.6 
	630.6,204.3 630.7,204.1 630.8,203.8 630.8,203.5 630.9,203.3 631.1,203.1 631.2,202.8 631.3,202.6 631.5,202.4 631.6,202.2 
	631.8,201.9 632,201.7 632.2,201.5 632.4,201.4 632.6,201.2 632.8,201 633.1,200.9 633.3,200.8 633.5,200.6 633.7,200.5 634,200.4 
	634.2,200.4 634.5,200.3 634.7,200.3 635,200.2 635.3,200.2 635.5,200.2 635.8,200.2 636,200.2 636.2,200.2 636.4,200.3 
	636.6,200.3 636.8,200.3 637,200.4 637.2,200.4 637.4,200.5 637.5,200.6 637.7,200.6 637.9,200.7 638.1,200.8 638.2,200.9 
	638.4,201 638.4,201 638.4,201 638.4,200.9 638.4,200.9 638.4,200.9 638.4,200.8 638.4,200.7 638.4,200.7 638.4,200.6 638.4,200.6 
	638.4,200.5 638.4,200.5 638.4,200.4 638.4,200.4 638.4,200.4 638.4,200.4 638.5,200.4 638.7,200.4 638.9,200.4 639.2,200.4 
	639.4,200.4 639.7,200.4 640,200.4 640.3,200.4 640.6,200.4 640.8,200.4 641,200.4 641.2,200.4 641.3,200.4 641.3,200.4 
	641.3,200.5 641.3,200.9 641.3,201.5 641.3,202.2 641.3,203 641.3,204 641.3,204.9 641.3,205.9 641.3,206.9 641.3,207.9 
	641.3,208.7 641.3,209.4 641.3,210 641.3,210.3 "/>
<polygon class="st2" points="638.4,207.1 638.4,207 638.4,206.9 638.4,206.7 638.4,206.5 638.4,206.2 638.4,205.9 638.4,205.6 
	638.4,205.3 638.4,205 638.4,204.7 638.4,204.4 638.4,204.2 638.4,204 638.4,203.9 638.4,203.8 638.3,203.7 638.2,203.5 638,203.4 
	637.9,203.3 637.8,203.2 637.6,203.1 637.5,203 637.3,202.9 637.1,202.9 637,202.8 636.8,202.7 636.6,202.7 636.4,202.7 
	636.2,202.7 636,202.7 635.9,202.7 635.7,202.7 635.6,202.7 635.5,202.7 635.3,202.8 635.2,202.8 635.1,202.8 634.9,202.9 
	634.8,203 634.7,203 634.6,203.1 634.5,203.2 634.4,203.3 634.3,203.4 634.2,203.5 634.1,203.6 634,203.7 633.9,203.8 633.8,203.9 
	633.8,204.1 633.7,204.2 633.6,204.3 633.6,204.4 633.5,204.6 633.5,204.7 633.5,204.9 633.5,205 633.4,205.2 633.4,205.3 
	633.4,205.5 633.4,205.6 633.4,205.8 633.5,205.9 633.5,206 633.5,206.2 633.5,206.3 633.6,206.4 633.6,206.6 633.7,206.7 
	633.8,206.8 633.8,206.9 633.9,207.1 634,207.2 634.1,207.3 634.2,207.4 634.3,207.5 634.4,207.6 634.5,207.7 634.6,207.8 
	634.7,207.8 634.8,207.9 634.9,208 635.1,208 635.2,208.1 635.3,208.1 635.5,208.1 635.6,208.2 635.7,208.2 635.9,208.2 636,208.2 
	636.2,208.2 636.4,208.2 636.6,208.2 636.8,208.1 637,208.1 637.1,208 637.3,208 637.4,207.9 637.6,207.8 637.7,207.7 637.9,207.6 
	638,207.5 638.2,207.3 638.3,207.2 "/>
<polygon class="st2" points="665.2,206.5 665.1,206.5 664.8,206.5 664.4,206.5 663.9,206.5 663.3,206.5 662.6,206.5 661.9,206.5 
	661.2,206.5 660.5,206.5 659.8,206.5 659.2,206.5 658.6,206.5 658.2,206.5 658,206.5 657.9,206.5 657.9,206.7 658,207 658.1,207.2 
	658.3,207.3 658.4,207.5 658.5,207.7 658.7,207.8 658.9,207.9 659,208 659.2,208.1 659.4,208.2 659.7,208.2 659.9,208.3 
	660.1,208.3 660.4,208.3 660.6,208.3 660.7,208.3 660.9,208.3 661,208.2 661.1,208.2 661.3,208.2 661.4,208.1 661.5,208.1 
	661.6,208 661.7,208 661.8,207.9 661.9,207.8 662,207.7 662,207.6 662.1,207.5 662.1,207.5 662.2,207.5 662.4,207.5 662.6,207.5 
	662.9,207.5 663.2,207.5 663.5,207.5 663.8,207.5 664.1,207.5 664.3,207.5 664.6,207.5 664.8,207.5 665,207.5 665.1,207.5 
	665.1,207.5 665,207.9 664.9,208.3 664.7,208.6 664.4,208.9 664.2,209.2 663.9,209.5 663.6,209.7 663.3,210 662.9,210.1 
	662.5,210.3 662.1,210.5 661.7,210.6 661.3,210.6 660.8,210.7 660.3,210.7 660,210.7 659.7,210.7 659.4,210.6 659.1,210.6 
	658.8,210.5 658.6,210.5 658.3,210.4 658,210.3 657.8,210.2 657.5,210 657.3,209.9 657.1,209.7 656.8,209.6 656.6,209.4 
	656.4,209.2 656.2,209 656.1,208.8 655.9,208.6 655.7,208.4 655.6,208.1 655.5,207.9 655.4,207.7 655.3,207.4 655.2,207.1 
	655.1,206.9 655,206.6 655,206.3 655,206 654.9,205.8 654.9,205.5 654.9,205.2 655,204.9 655,204.6 655,204.3 655.1,204 
	655.2,203.8 655.3,203.5 655.3,203.2 655.5,203 655.6,202.8 655.7,202.5 655.9,202.3 656,202.1 656.2,201.9 656.4,201.7 
	656.6,201.5 656.8,201.3 657,201.2 657.3,201 657.5,200.9 657.7,200.7 658,200.6 658.2,200.5 658.5,200.4 658.8,200.4 659.1,200.3 
	659.4,200.3 659.7,200.2 660,200.2 660.3,200.2 660.6,200.2 660.8,200.2 661.1,200.3 661.4,200.3 661.6,200.4 661.9,200.4 
	662.1,200.5 662.4,200.6 662.6,200.7 662.8,200.8 663,201 663.2,201.1 663.4,201.3 663.6,201.4 663.8,201.6 664,201.8 664.2,202 
	664.3,202.2 664.5,202.4 664.6,202.6 664.7,202.9 664.9,203.1 664.9,203.3 665,203.6 665.1,203.9 665.2,204.1 665.2,204.4 
	665.2,204.7 665.3,205 665.3,205.2 665.3,205.4 665.3,205.5 665.3,205.6 665.3,205.7 665.3,205.8 665.3,205.9 665.2,205.9 
	665.2,206 665.2,206.1 665.2,206.2 665.2,206.3 665.2,206.3 665.2,206.4 665.2,206.4 "/>
<polygon class="st2" points="657.8,204.5 657.9,204.5 658.1,204.5 658.3,204.5 658.6,204.5 659,204.5 659.4,204.5 659.9,204.5 
	660.3,204.5 660.8,204.5 661.2,204.5 661.6,204.5 661.9,204.5 662.1,204.5 662.3,204.5 662.4,204.5 662.3,204.2 662.3,204 
	662.2,203.8 662.1,203.6 662,203.5 661.9,203.3 661.7,203.2 661.6,203 661.4,202.9 661.3,202.8 661.1,202.7 660.9,202.7 
	660.7,202.6 660.4,202.6 660.2,202.6 660,202.6 659.7,202.6 659.5,202.7 659.3,202.7 659.1,202.8 658.9,202.9 658.7,203 
	658.6,203.1 658.4,203.3 658.3,203.4 658.2,203.6 658.1,203.8 658,204 657.9,204.2 "/>
<polygon class="st1" points="1032.8,392 1032.2,392 1030.9,392 1026.4,392 1020.8,392 1015.8,392 1014.1,392 1013,392 1013,392.4 
	1013,394.1 1013,396.4 1013,398.7 1013,400.3 1012.6,400.5 1011.5,400.5 1009.8,400.5 1000.6,400.5 997,400.5 996.1,400.5 
	995.9,400.5 995.9,399.4 995.9,397.4 995.9,393 995.9,392 995.7,392 994.7,392 990.9,392 986.2,392 981.9,392 980.2,392 979.2,392 
	978.9,392.3 978.9,393.9 978.9,398.5 978.9,400.2 978.8,400.5 977.8,400.5 976.2,400.5 971.9,400.5 967.2,400.5 963.3,400.5 
	962.3,400.5 961.9,400.5 961.9,399.6 961.9,395.3 961.9,393.2 961.9,392.1 961.8,392 960.7,392 959,392 956.7,392 946,392 944,392 
	942.6,392 941.5,392 940.2,392 938.2,392 933,392 927.5,392 925.2,392 923.4,392 922.4,392 922.2,392 922.2,393.2 922.2,397.6 
	922.2,399.6 922.2,400.5 921.9,400.5 920.8,400.5 917,400.5 912.3,400.5 908,400.5 906.3,400.5 905.5,400.5 905.2,400.2 
	905.2,398.5 905.2,396.2 905.2,393.9 905.2,392.3 905,392 904,392 902.3,392 893.2,392 889.5,392 888.5,392 888.2,392 888.2,393 
	888.2,395 888.2,399.4 888.2,400.5 888,400.5 887.1,400.5 883.5,400.5 878.8,400.5 874.3,400.5 872.6,400.5 871.6,400.5 
	871.2,400.3 871.2,398.8 871.2,394.1 871.2,392.4 871.1,392 870,392 868.3,392 863.3,392 857.8,392 853.3,392 851.9,392 851.3,392 
	847.2,391.8 838.9,390.1 831.2,386.9 824.1,382.2 818.3,376.2 813.6,369.1 810.5,361.3 809,353.1 808.9,350.9 808.9,349.9 
	808.8,349.4 808.8,348.1 808.8,345.5 808.8,341.9 808.8,337.6 808.8,328.5 808.8,324.2 808.8,320.7 808.8,318.1 808.8,317 
	808.2,316.9 806.3,316.9 801.8,316.9 800.5,316.9 800.3,316.9 800.3,316.3 800.3,315 800.3,313.1 800.3,308.6 800.3,304 800.3,302 
	800.3,300.6 800.3,299.9 800.4,299.9 801.7,299.9 806.2,299.9 808.1,299.9 808.8,299.9 808.8,299.4 808.8,298.2 808.8,294.2 
	808.8,289.5 808.8,285.2 808.8,283.7 808.8,283 808.4,282.8 806.6,282.8 804.3,282.8 802,282.8 800.6,282.8 800.3,282.4 
	800.3,281.3 800.3,279.6 800.3,270.4 800.3,266.9 800.3,266 800.4,265.9 801.4,265.9 803.6,265.9 807.9,265.9 808.8,265.9 
	808.8,265.5 808.8,264.5 808.8,260.7 808.8,256 808.8,251.7 808.8,250 808.8,249 808.5,248.9 806.8,248.9 802.3,248.9 800.6,248.9 
	800.3,248.6 800.3,247.7 800.3,246 800.3,241.6 800.3,236.9 800.3,233.2 800.3,232.1 800.3,231.9 801.3,231.9 805.7,231.9 
	807.7,231.9 808.8,231.9 808.8,231.6 808.8,230.8 808.8,227.2 808.8,218 808.8,216.4 808.8,215.2 808.6,214.8 807.1,214.8 
	804.8,214.8 802.5,214.8 800.8,214.8 800.3,214.7 800.3,213.9 800.3,212.4 800.3,208.2 800.3,203.4 800.3,199.5 800.3,198.3 
	800.3,197.8 801.1,197.8 803,197.8 807.6,197.8 808.8,197.8 808.8,197.8 808.8,197 808.8,195.6 808.8,193.7 808.8,189 808.8,184.5 
	808.8,182.7 808.8,181.4 808.8,180.9 808.7,180.9 807.3,180.9 802.8,180.9 801,180.9 800.3,180.8 800.3,180.1 800.3,178.8 
	800.3,174.7 800.3,169.9 800.3,165.8 800.3,164.5 800.3,163.9 801,163.8 802.8,163.8 805.1,163.8 807.3,163.8 808.7,163.8 
	808.8,163.8 808.8,163.2 808.8,161.9 808.8,160.1 808.8,150.9 808.8,149 808.8,147.6 808.8,146.9 808.7,146.8 807.5,146.8 
	805.4,146.8 801.1,146.8 800.3,146.8 800.3,146.3 800.3,145.1 800.3,141.2 800.3,136.4 800.3,132.2 800.3,130.7 800.3,129.9 
	800.8,129.8 802.5,129.8 807.1,129.8 808.6,129.8 808.8,129.8 808.8,129.1 808.8,126.9 808.8,123.6 808.8,115.1 808.8,106.1 
	808.8,102.2 808.8,99.2 808.8,97.5 808.8,97.3 808.9,96.4 809.1,92.2 810.9,83.9 814.3,76.3 819.2,69.3 825.3,63.6 832.5,59.1 
	840.4,56.1 848.6,54.8 850.8,54.7 851.4,54.7 851.7,54.7 853.6,54.7 856.5,54.7 860.2,54.7 864.5,54.7 873.2,54.7 877,54.7 
	880.1,54.7 882,54.7 882.5,54.7 882.5,53.7 882.5,51.8 882.5,47.3 882.5,46.2 882.7,46.2 883.6,46.2 887.2,46.2 891.8,46.2 
	896.3,46.2 898,46.2 899.2,46.2 899.6,46.4 899.6,47.9 899.6,52.5 899.6,54.2 899.7,54.7 900.5,54.7 901.9,54.7 906.2,54.7 
	910.9,54.7 914.8,54.7 916.1,54.7 916.6,54.7 916.6,54 916.6,49.7 916.6,47.5 916.6,46.3 916.6,46.2 917.4,46.2 918.8,46.2 
	920.6,46.2 929.9,46.2 931.7,46.2 933,46.2 933.5,46.2 933.5,46.3 933.5,47.7 933.5,49.9 933.5,52.3 933.5,54.1 933.6,54.7 
	934.3,54.7 935.6,54.7 939.7,54.7 944.4,54.7 948.6,54.7 949.9,54.7 950.5,54.7 950.6,54.1 950.6,52.3 950.6,47.7 950.6,46.3 
	950.6,46.2 951.2,46.2 952.4,46.2 954.2,46.2 958.8,46.2 963.4,46.2 965.4,46.2 966.8,46.2 967.5,46.2 967.6,46.3 967.6,47.4 
	967.6,52 967.6,53.9 967.6,54.7 968.1,54.7 969.2,54.7 973.1,54.7 977.9,54.7 982.1,54.7 983.7,54.7 984.5,54.7 984.6,54.2 
	984.6,52.5 984.6,50.2 984.6,47.9 984.6,46.5 985,46.2 986.1,46.2 987.8,46.2 997,46.2 1000.5,46.2 1001.5,46.2 1001.6,46.2 
	1001.6,47.3 1001.6,49.3 1001.6,53.7 1001.6,54.7 1002.1,54.7 1004.1,54.7 1007.1,54.7 1010.8,54.7 1019.6,54.7 1023.8,54.7 
	1027.6,54.7 1030.5,54.7 1032.3,54.7 1032.7,54.7 1033.3,54.7 1035.4,54.8 1039.7,55.3 1047.7,57.4 1055.3,61.2 1061.9,66.3 
	1067.5,72.7 1071.7,80 1074.3,87.9 1075.3,96.4 1075.3,97.3 1075.3,97.5 1075.3,99.2 1075.3,102.2 1075.3,105.9 1075.3,115 
	1075.3,123.5 1075.3,126.8 1075.3,129 1075.3,129.8 1075.5,129.8 1077,129.8 1079.3,129.8 1081.6,129.8 1083.3,129.8 1083.8,129.9 
	1083.8,130.7 1083.8,132.2 1083.8,136.4 1083.8,141.2 1083.8,145.1 1083.8,146.3 1083.8,146.8 1083.1,146.8 1081.1,146.8 
	1076.6,146.8 1075.4,146.8 1075.3,146.9 1075.3,147.6 1075.3,149 1075.3,150.9 1075.3,155.6 1075.3,160.1 1075.3,161.9 
	1075.3,163.2 1075.3,163.8 1075.4,163.8 1076.8,163.8 1081.3,163.8 1083.2,163.8 1083.8,163.9 1083.8,164.5 1083.8,165.8 
	1083.8,169.8 1083.8,174.7 1083.8,178.7 1083.8,180.1 1083.8,180.8 1083.2,180.9 1081.4,180.9 1079,180.9 1076.8,180.9 
	1075.4,180.9 1075.3,180.9 1075.3,181.4 1075.3,182.7 1075.3,184.5 1075.3,193.6 1075.3,195.6 1075.3,197 1075.3,197.8 
	1075.3,197.8 1076.6,197.8 1078.7,197.8 1083,197.8 1083.8,197.8 1083.8,198.3 1083.8,199.5 1083.8,203.4 1083.8,208.1 
	1083.8,212.4 1083.8,213.9 1083.8,214.7 1083.3,214.8 1081.6,214.8 1077,214.8 1075.6,214.8 1075.3,215.2 1075.3,216.3 1075.3,218 
	1075.3,222.4 1075.3,227.2 1075.3,230.8 1075.3,231.6 1075.3,231.9 1076.4,231.9 1080.8,231.9 1082.8,231.9 1083.8,231.9 
	1083.8,232.1 1083.8,233.2 1083.8,236.9 1083.8,245.9 1083.8,247.6 1083.8,248.6 1083.5,248.9 1081.9,248.9 1079.6,248.9 
	1077.3,248.9 1075.7,248.9 1075.3,249 1075.3,250 1075.3,251.6 1075.3,255.9 1075.3,260.6 1075.3,264.5 1075.3,265.5 1075.3,265.9 
	1076.2,265.9 1078.2,265.9 1082.7,265.9 1083.7,265.9 1083.8,266 1083.8,266.9 1083.8,270.4 1083.8,275.1 1083.8,279.6 
	1083.8,281.3 1083.8,282.4 1083.8,282.8 1083.6,282.8 1082.1,282.8 1077.5,282.8 1075.8,282.8 1075.3,283 1075.3,283.7 
	1075.3,285.2 1075.3,289.4 1075.3,294.2 1075.3,298.1 1075.3,299.3 1075.3,299.9 1076,299.9 1077.9,299.9 1080.3,299.9 
	1082.4,299.9 1083.7,299.9 1083.8,299.9 1083.8,300.6 1083.8,302 1083.8,303.9 1083.8,313.1 1083.8,314.9 1083.8,316.2 
	1083.8,316.9 1083.7,316.9 1082.4,316.9 1080.2,316.9 1077.8,316.9 1075.9,316.9 1075.3,317 1075.3,318.1 1075.3,320.6 
	1075.3,324.2 1075.3,328.4 1075.3,337.6 1075.3,341.8 1075.3,345.4 1075.3,348.1 1075.3,349.4 1075.3,349.9 1075.3,350.9 
	1075.2,353 1074.6,357.2 1072.2,365.2 1068.4,372.7 1063.1,379.3 1056.6,384.7 1049.2,388.7 1041.1,391.2 "/>
<polyline class="st1" points="89.2,449.3 89.2,452 89.2,458.4 89.2,465.4 89.2,471.6 89.2,474 89.2,475.9 89.2,476.9 89.2,477.1 
	89.3,477.7 90.2,478.6 91.4,478.7 91.9,478.4 92.1,478.3 92.3,478.1 92.8,477.4 95.5,474.3 98.2,471.1 98.9,470.2 99,470 
	99.2,469.8 100.4,469.5 101.5,470 102,471.1 102,471.2 102,471.8 102,473.4 102,475.6 102,481.4 102,488.3 102,495 102,497.8 
	102,500.1 102,501.7 102,502.5 102,502.7 101.4,503.8 100.4,504.2 99.2,503.9 99,503.6 98.6,503.2 97.7,502.1 94.8,498.7 93.4,497 
	92.5,496 91.9,495.2 91.3,495.1 90.1,495.2 89.3,496.1 89.2,496.8 89.2,497.7 89.2,499.4 89.2,501.8 89.2,504.6 89.2,518.1 
	89.2,524 89.2,526.1 89.2,527.5 89.2,528.1 89.2,528.1 89.3,528.3 89.4,528.9 90.3,529.7 91.5,529.6 92,529.3 92.4,529 93.1,528.1 
	94.3,526.6 97.3,523.2 98.4,521.8 99,521.1 99.4,520.7 100.6,520.5 101.6,521.2 101.9,521.7 101.9,522 102,522.2 102,522.4 
	102,523.6 102,525.4 102,528 102,534.3 102,541.2 102,547.5 102,550.1 102,552.1 102,553.3 102,553.6 101.9,553.9 101.3,554.9 
	100.1,555.2 99.1,554.8 99,554.7 98.4,554 97.3,552.7 95.9,551 93.2,547.7 92.4,546.8 92.2,546.6 91.1,546 89.9,546.3 89.3,547.3 
	89.2,547.7 89.2,548.1 89.2,549.4 89.2,551.4 89.2,556.8 89.2,563.3 89.2,569.7 89.2,574.8 89.2,576.5 89.2,577.5 89.2,577.9 
	89.2,579 89.2,580.6 89.2,584.2 89.2,585.5 89.2,586.1 89.5,586.1 90.4,586.1 93.4,586.1 101.9,586.1 105.7,586.1 108.4,586.1 
	109,586.1 109,586 109,585.3 109,578.6 109,577.7 109.3,577.5 111.3,577.5 114.4,577.5 121.7,577.5 124.6,577.5 126,577.5 
	126.1,577.9 126.1,579.1 126.1,582.6 126.1,585.6 126.1,586.1 127.1,586.1 129.8,586.1 133.3,586.1 140.4,586.1 142.6,586.1 
	143.1,586 143.1,585.2 143.1,583.7 143.1,580.1 143.1,578.5 143.1,577.7 143.4,577.5 145.4,577.5 148.6,577.5 152.4,577.5 
	156,577.5 158.7,577.5 160,577.5 160,577.9 160,579.1 160,580.8 160,584.4 160,585.7 160.1,586.1 160.5,586.1 161.5,586.1 
	164.7,586.1 173.2,586.1 177,586.1 179.4,586.1 180.4,586.1 182.8,586.1 186.7,586.1 191.9,586.1 198,586.1 211.7,586.1 
	225.4,586.1 231.5,586.1 236.7,586.1 240.6,586.1 243,586.1 244.4,586.1 246,586.1 248.4,586.1 254.6,586.1 268.5,586.1 
	271.5,586.1 273.8,586.1 275.4,586.1 276.1,586.1 276.1,585.7 276.1,584.4 276.1,580.8 276.1,579.1 276.1,577.9 276.1,577.5 
	277.4,577.5 280.2,577.5 283.8,577.5 287.5,577.5 290.7,577.5 292.8,577.5 293.1,577.7 293.1,578.5 293.1,580.1 293.1,583.7 
	293.1,585.2 293.1,586 293.6,586.1 295.8,586.1 302.8,586.1 306.3,586.1 309,586.1 310.2,586.1 310.2,585.6 310.2,582.6 
	310.2,579.1 310.2,577.9 310.2,577.5 311.5,577.5 314.4,577.5 321.8,577.5 324.9,577.5 326.8,577.5 327.1,577.7 327.1,578.6 
	327.1,585.3 327.1,586 327.7,586.1 329.9,586.1 333.3,586.1 340.5,586.1 343.1,586.1 343.9,586.1 344.1,586.1 344.1,585.5 
	344.1,584.2 344.1,580.6 344.1,579 344.1,577.9 344.2,577.5 345.8,577.5 348.6,577.5 352.3,577.5 356,577.5 359.1,577.5 
	360.9,577.5 361.2,577.7 361.2,578.7 361.2,580.2 361.2,583.9 361.2,585.4 361.2,586 361.8,586.1 364.1,586.1 371.2,586.1 
	374.7,586.1 377.3,586.1 377.9,586.1 378.2,586.1 378.2,585.5 378.2,582.4 378.2,578.9 378.2,577.8 378.2,577.5 379.9,577.5 
	382.8,577.5 390.2,577.5 393.2,577.5 395,577.5 395.1,577.8 395.1,578.8 395.1,582.2 395.1,585.4 395.1,586 395.3,586.1 
	395.9,586.1 398.3,586.1 401.7,586.1 408.9,586.1 411.4,586.1 412,586.1 412.2,586 412.2,585.5 412.2,584.1 412.2,580.5 
	412.2,578.8 412.2,577.8 412.3,577.5 414,577.5 417,577.5 420.7,577.5 424.4,577.5 427.4,577.5 429,577.5 429.2,577.8 429.2,578.8 
	429.2,580.5 429.2,584.1 429.2,585.5 429.2,586 429.3,586.1 430,586.1 432.5,586.1 439.6,586.1 443.1,586.1 445.4,586.1 
	446.1,586.1 446.2,586 446.2,585.4 446.2,582.2 446.2,578.8 446.2,577.8 446.4,577.5 448.1,577.5 451.2,577.5 458.6,577.5 
	461.5,577.5 463.1,577.5 463.2,577.8 463.2,578.9 463.2,582.4 463.2,585.5 463.2,586.1 463.6,586.1 464.9,586.1 467.1,586.1 
	469.8,586.1 476.5,586.1 483.6,586.1 490.1,586.1 492.7,586.1 494.6,586.1 495.6,586.1 496,586.1 497.8,586.1 501.2,586.1 
	506,586.1 511.9,586.1 525.4,586.1 539.3,586.1 545.6,586.1 551.1,586.1 555.4,586.1 558.3,586.1 559.1,586.1 559.4,586.1 
	559.9,586.1 561.2,586.1 563.2,586.1 568.9,586.1 575.7,586.1 582.4,586.1 585.3,586.1 587.7,586.1 589.5,586.1 590.4,586.1 
	590.6,585.8 590.6,584.6 590.6,583 590.6,579.3 590.6,578.1 590.6,577.5 590.8,577.5 591.6,577.5 594.2,577.5 601.4,577.5 
	604.8,577.5 607.1,577.5 607.6,577.6 607.6,578.4 607.6,585.1 607.6,586 607.9,586.1 609.8,586.1 612.9,586.1 620.3,586.1 
	623.2,586.1 624.5,586.1 624.6,585.8 624.6,584.6 624.6,581.1 624.6,578 624.6,577.5 625.8,577.5 628.4,577.5 631.9,577.5 
	639,577.5 641.1,577.5 641.6,577.6 641.6,578.4 641.6,579.9 641.6,583.6 641.6,585.1 641.6,586 642,586.1 644,586.1 647.2,586.1 
	650.9,586.1 654.5,586.1 657.3,586.1 658.6,586.1 658.7,585.7 658.7,584.5 658.7,582.8 658.7,579.2 658.7,577.9 658.7,577.5 
	659.8,577.5 662.6,577.5 669.8,577.5 673.1,577.5 675.2,577.5 675.6,577.6 675.6,578.5 675.6,581.8 675.6,585.1 675.6,586 
	676.1,586.1 678.2,586.1 681.4,586.1 688.7,586.1 691.4,586.1 692.6,586.1 692.6,585.7 692.6,584.4 692.6,580.8 692.6,579.1 
	692.6,577.9 692.7,577.5 694,577.5 696.8,577.5 700.4,577.5 704.1,577.5 707.3,577.5 709.3,577.5 709.7,577.7 709.7,578.5 
	709.7,580.1 709.7,583.7 709.7,585.2 709.7,586 709.7,586.1 710.6,586.1 712.2,586.1 714.5,586.1 720.5,586.1 727.4,586.1 
	733.9,586.1 736.6,586.1 738.7,586.1 740.2,586.1 740.8,586.1 741,586.1 741.6,586.1 744.2,586.1 748.4,586.1 753.7,586.1 
	759.9,586.1 766.7,586.1 780.8,586.1 787.4,586.1 793.4,586.1 798.3,586.1 802,586.1 804.1,586.1 804.5,586.1 805.4,586.1 
	807.2,586.1 809.7,586.1 812.6,586.1 826.7,586.1 832.8,586.1 835,586.1 836.5,586.1 837,586.1 837,586 837,585.1 837,578.4 
	837,577.6 837.6,577.5 839.8,577.5 843.2,577.5 850.4,577.5 853,577.5 853.8,577.5 854,577.5 854,578.1 854,579.3 854,583 
	854,584.6 854,585.8 854.1,586.1 855.6,586.1 858.5,586.1 862.2,586.1 865.9,586.1 869,586.1 870.8,586.1 871.1,586 871.1,585 
	871.1,583.4 871.1,579.7 871.1,578.3 871.1,577.6 871.7,577.5 874,577.5 881.1,577.5 884.6,577.5 887.2,577.5 887.8,577.5 
	888.1,577.5 888.1,578.1 888.1,581.2 888.1,584.7 888.1,585.9 888.1,586.1 889.8,586.1 892.7,586.1 900.1,586.1 903.1,586.1 
	904.9,586.1 905,585.9 905,584.9 905,581.5 905,578.3 905,577.6 905.2,577.5 905.8,577.5 908.2,577.5 911.6,577.5 918.8,577.5 
	921.3,577.5 921.9,577.5 922.1,577.5 922.1,578.2 922.1,579.6 922.1,583.2 922.1,584.8 922.1,585.9 922.2,586.1 923.9,586.1 
	926.9,586.1 930.6,586.1 934.3,586.1 937.3,586.1 938.9,586.1 939.1,585.9 939.1,584.8 939.1,583.2 939.1,579.6 939.1,578.2 
	939.1,577.5 939.2,577.5 939.9,577.5 942.3,577.5 949.5,577.5 953,577.5 955.3,577.5 956,577.5 956.1,577.6 956.1,578.3 
	956.1,581.5 956.1,584.9 956.1,585.9 956.3,586.1 958,586.1 961.1,586.1 968.5,586.1 971.4,586.1 973,586.1 973.1,585.9 
	973.1,584.7 973.1,581.2 973.1,578.1 973.1,577.5 973.3,577.5 974,577.5 976.5,577.5 980,577.5 987.2,577.5 989.4,577.5 
	990.1,577.6 990.1,578.3 990.1,579.7 990.1,583.4 990.1,585 990.1,586 990.3,586.1 992.2,586.1 995.3,586.1 999,586.1 1002.7,586.1 
	1005.5,586.1 1007,586.1 1007.1,585.8 1007.1,584.6 1007.1,583 1007.1,579.3 1007.1,578.1 1007.1,577.5 1007.4,577.5 1008.1,577.5 
	1010.8,577.5 1017.9,577.5 1021.3,577.5 1023.6,577.5 1024.1,577.6 1024.1,578.4 1024.1,585.1 1024.1,586 1024.1,586.1 
	1024.7,586.1 1026.2,586.1 1028.4,586.1 1034.4,586.1 1048.5,586.1 1051.5,586.1 1053.9,586.1 1055.7,586.1 1056.6,586.1 
	1057,586.1 1059.2,586.1 1062.8,586.1 1067.8,586.1 1073.8,586.1 1080.4,586.1 1094.4,586.1 1101.2,586.1 1107.5,586.1 
	1112.8,586.1 1116.9,586.1 1119.5,586.1 1120.1,586.1 1120.3,586.1 1120.7,586.1 1121.6,586.1 1124.7,586.1 1128.9,586.1 
	1133.2,586.1 1137,586.1 1139.6,586.1 1140.1,586.1 1140.1,586 1140.1,585.2 1140.1,583.7 1140.1,580.1 1140.1,578.5 1140.1,577.7 
	1140.6,577.5 1142.5,577.5 1145.7,577.5 1149.5,577.5 1153,577.5 1155.8,577.5 1157.1,577.5 1157.2,577.9 1157.2,579.1 
	1157.2,580.8 1157.2,584.4 1157.2,585.7 1157.2,586.1 1158.4,586.1 1161.1,586.1 1168.4,586.1 1171.7,586.1 1173.8,586.1 
	1174.2,586 1174.2,585.1 1174.2,581.8 1174.2,578.5 1174.2,577.6 1174.6,577.5 1176.7,577.5 1179.9,577.5 1187.2,577.5 
	1189.9,577.5 1191.2,577.5 1191.2,577.9 1191.2,579.2 1191.2,582.8 1191.2,584.5 1191.2,585.7 1191.2,586.1 1191.7,586.1 
	1192.7,586.1 1196,586.1 1200.1,586.1 1204.6,586.1 1208.2,586.1 1210.6,586.1 1211,586 1211,585.1 1211,583.6 1211,579.9 
	1211,578.4 1211,577.6 1211,577.5 1211,576.7 1211,575.1 1211,572.9 1211,567.1 1211,560.6 1211,554.4 1211,551.7 1211,549.7 
	1211,548.3 1211,547.7 1211,547.6 1211.1,547.2 1211.8,546.3 1213,546 1214,546.6 1214.4,547.1 1215.5,548.3 1218.4,551.7 
	1219.7,553.4 1220.6,554.4 1220.9,554.8 1222,555.2 1223.2,554.8 1223.7,553.9 1223.8,553.4 1223.8,552.3 1223.8,550.4 1223.8,548 
	1223.8,545 1223.8,531.4 1223.8,525.8 1223.8,523.8 1223.8,522.6 1223.7,521.7 1223.4,521.1 1222.4,520.5 1221.2,520.8 
	1220.6,521.3 1219.8,522.3 1218.5,523.8 1215.6,527.3 1214.5,528.5 1214,529.1 1213.9,529.4 1213.3,529.7 1212.1,529.6 
	1211.2,528.8 1211,528.2 1211,528.1 1211,527.7 1211,526.3 1211,524.3 1211,521.7 1211,515.3 1211,508.4 1211,502.2 1211,499.7 
	1211,497.8 1211,496.9 1211,496.6 1211.2,496.1 1212,495.2 1213.1,495.1 1213.7,495.3 1213.9,495.5 1214,495.6 1214.7,496.4 
	1217.3,499.4 1220,502.7 1220.7,503.6 1220.8,503.7 1221,503.9 1222.2,504.2 1223.3,503.7 1223.8,502.6 1223.8,502.5 1223.8,501.9 
	1223.8,500.4 1223.8,498.2 1223.8,492.3 1223.8,485.4 1223.8,478.7 1223.8,476 1223.8,473.7 1223.8,472 1223.8,471.2 1223.7,471.1 
	1223.2,469.9 1222.2,469.5 1221,469.8 1220.8,470.1 1220.5,470.5 1219.5,471.6 1216.6,475.1 1215.2,476.6 1214.4,477.8 
	1213.7,478.4 1213.1,478.7 1211.9,478.5 1211.1,477.6 1211,476.9 1211,476 1211,474.3 1211,472 1211,469.1 1211,455.6 1211,449.8 
	1211,447.6 1211,446.2 1211,445.7 1211,444.3 1191.2,444.3 "/>
<polyline class="st1" points="100,444.3 95.7,444.3 92,444.3 89.6,444.3 89.2,444.5 89.2,445.3 "/>
<polyline class="st1" points="293.2,444.3 293.1,444.6 293.1,445.8 293.1,447.4 293.1,451 293.1,452.3 293.1,452.9 292.9,452.9 
	292.1,452.9 289.5,452.9 282.2,452.9 278.9,452.9 276.7,452.9 276.1,452.8 276.1,452.1 276.1,445.4 276.1,444.5 276.1,444.3 "/>
<polyline class="st1" points="607.6,444.3 607.6,444.7 607.6,445.9 607.6,449.6 607.6,451.3 607.6,452.5 607.6,452.9 606.3,452.9 
	603.5,452.9 599.9,452.9 596.1,452.9 592.9,452.9 591,452.9 590.6,452.7 590.6,451.9 590.6,450.4 590.6,446.7 590.6,445.2 
	590.6,444.4 590.5,444.3 "/>
<polyline class="st1" points="854.2,444.3 854,444.4 854,445 854,448.2 854,451.7 854,452.6 853.9,452.9 852.1,452.9 849,452.9 
	841.7,452.9 838.7,452.9 837.1,452.9 837,452.6 837,451.5 837,448 837,444.9 837,444.3 "/>
<polyline class="st1" points="1157.7,444.3 1157.2,444.4 1157.2,445.2 1157.2,446.7 1157.2,450.4 1157.2,451.9 1157.2,452.7 
	1156.8,452.9 1154.8,452.9 1151.6,452.9 1147.9,452.9 1144.3,452.9 1141.5,452.9 1140.2,452.9 1140.1,452.5 1140.1,451.3 
	1140.1,449.6 1140.1,445.9 1140.1,444.7 1140.1,444.3 "/>
<line class="st0" x1="228.8" y1="444.3" x2="228.8" y2="530.1"/>
<line class="st0" x1="233" y1="491.2" x2="233" y2="452.8"/>
<line class="st0" x1="233" y1="577.5" x2="233" y2="499.7"/>
<line class="st0" x1="237.3" y1="538.6" x2="237.3" y2="586.1"/>
<line class="st0" x1="237.3" y1="444.3" x2="237.3" y2="530.1"/>
<line class="st0" x1="186.2" y1="538.6" x2="186.2" y2="586.1"/>
<line class="st0" x1="186.2" y1="444.3" x2="186.2" y2="530.1"/>
<line class="st0" x1="190.5" y1="491.2" x2="190.5" y2="452.8"/>
<line class="st0" x1="190.5" y1="577.5" x2="190.5" y2="499.7"/>
<line class="st0" x1="194.7" y1="538.6" x2="194.7" y2="586.1"/>
<line class="st0" x1="194.7" y1="444.3" x2="194.7" y2="530.1"/>
<line class="st0" x1="199" y1="491.2" x2="199" y2="452.8"/>
<line class="st0" x1="199" y1="577.5" x2="199" y2="499.7"/>
<line class="st0" x1="203.2" y1="538.6" x2="203.2" y2="586.1"/>
<line class="st0" x1="203.2" y1="444.3" x2="203.2" y2="530.1"/>
<line class="st0" x1="207.5" y1="491.2" x2="207.5" y2="452.8"/>
<line class="st0" x1="207.5" y1="577.5" x2="207.5" y2="499.7"/>
<line class="st0" x1="211.7" y1="538.6" x2="211.7" y2="586.1"/>
<line class="st0" x1="211.7" y1="444.3" x2="211.7" y2="530.1"/>
<line class="st0" x1="216" y1="491.2" x2="216" y2="452.8"/>
<line class="st0" x1="216" y1="577.5" x2="216" y2="499.7"/>
<line class="st0" x1="220.3" y1="538.6" x2="220.3" y2="586.1"/>
<line class="st0" x1="220.3" y1="444.3" x2="220.3" y2="530.1"/>
<line class="st0" x1="224.5" y1="491.2" x2="224.5" y2="452.8"/>
<line class="st0" x1="224.5" y1="577.5" x2="224.5" y2="499.7"/>
<line class="st0" x1="228.8" y1="538.6" x2="228.8" y2="586.1"/>
<line class="st0" x1="544.6" y1="444.3" x2="544.6" y2="530.1"/>
<line class="st0" x1="548.9" y1="491.2" x2="548.9" y2="452.8"/>
<line class="st0" x1="548.9" y1="577.5" x2="548.9" y2="499.7"/>
<line class="st0" x1="553.1" y1="538.6" x2="553.1" y2="586.1"/>
<line class="st0" x1="553.1" y1="444.3" x2="553.1" y2="530.1"/>
<line class="st0" x1="502.1" y1="538.6" x2="502.1" y2="586.1"/>
<line class="st0" x1="502.1" y1="444.3" x2="502.1" y2="530.1"/>
<line class="st0" x1="506.3" y1="491.2" x2="506.3" y2="452.8"/>
<line class="st0" x1="506.3" y1="577.5" x2="506.3" y2="499.7"/>
<line class="st0" x1="510.6" y1="538.6" x2="510.6" y2="586.1"/>
<line class="st0" x1="510.6" y1="444.3" x2="510.6" y2="530.1"/>
<line class="st0" x1="514.8" y1="491.2" x2="514.8" y2="452.8"/>
<line class="st0" x1="514.8" y1="577.5" x2="514.8" y2="499.7"/>
<line class="st0" x1="519.1" y1="538.6" x2="519.1" y2="586.1"/>
<line class="st0" x1="519.1" y1="444.3" x2="519.1" y2="530.1"/>
<line class="st0" x1="523.3" y1="491.2" x2="523.3" y2="452.8"/>
<line class="st0" x1="523.3" y1="577.5" x2="523.3" y2="499.7"/>
<line class="st0" x1="527.6" y1="538.6" x2="527.6" y2="586.1"/>
<line class="st0" x1="527.6" y1="444.3" x2="527.6" y2="530.1"/>
<line class="st0" x1="531.8" y1="491.2" x2="531.8" y2="452.8"/>
<line class="st0" x1="531.8" y1="577.5" x2="531.8" y2="499.7"/>
<line class="st0" x1="536.1" y1="538.6" x2="536.1" y2="586.1"/>
<line class="st0" x1="536.1" y1="444.3" x2="536.1" y2="530.1"/>
<line class="st0" x1="540.4" y1="491.2" x2="540.4" y2="452.8"/>
<line class="st0" x1="540.4" y1="577.5" x2="540.4" y2="499.7"/>
<line class="st0" x1="544.6" y1="538.6" x2="544.6" y2="586.1"/>
<line class="st0" x1="791.1" y1="444.3" x2="791.1" y2="530.1"/>
<line class="st0" x1="795.3" y1="491.2" x2="795.3" y2="452.8"/>
<line class="st0" x1="795.3" y1="577.5" x2="795.3" y2="499.7"/>
<line class="st0" x1="799.6" y1="538.6" x2="799.6" y2="586.1"/>
<line class="st0" x1="799.6" y1="530.1" x2="799.6" y2="443.6"/>
<line class="st0" x1="748.5" y1="538.6" x2="748.5" y2="586.1"/>
<line class="st0" x1="748.5" y1="530.1" x2="748.5" y2="443.6"/>
<line class="st0" x1="752.8" y1="491.2" x2="752.8" y2="452.8"/>
<line class="st0" x1="752.8" y1="577.5" x2="752.8" y2="499.7"/>
<line class="st0" x1="757" y1="538.6" x2="757" y2="586.1"/>
<line class="st0" x1="757" y1="444.3" x2="757" y2="530.1"/>
<line class="st0" x1="761.3" y1="491.2" x2="761.3" y2="452.8"/>
<line class="st0" x1="761.3" y1="577.5" x2="761.3" y2="499.7"/>
<line class="st0" x1="765.5" y1="538.6" x2="765.5" y2="586.1"/>
<line class="st0" x1="765.5" y1="444.3" x2="765.5" y2="530.1"/>
<line class="st0" x1="769.8" y1="491.2" x2="769.8" y2="452.8"/>
<line class="st0" x1="769.8" y1="577.5" x2="769.8" y2="499.7"/>
<line class="st0" x1="774" y1="538.6" x2="774" y2="586.1"/>
<line class="st0" x1="774" y1="444.3" x2="774" y2="530.1"/>
<line class="st0" x1="778.3" y1="491.2" x2="778.3" y2="452.8"/>
<line class="st0" x1="778.3" y1="577.5" x2="778.3" y2="499.7"/>
<line class="st0" x1="782.6" y1="538.6" x2="782.6" y2="586.1"/>
<line class="st0" x1="782.6" y1="444.3" x2="782.6" y2="530.1"/>
<line class="st0" x1="786.8" y1="491.2" x2="786.8" y2="452.8"/>
<line class="st0" x1="786.8" y1="577.5" x2="786.8" y2="499.7"/>
<line class="st0" x1="791.1" y1="538.6" x2="791.1" y2="586.1"/>
<line class="st0" x1="1105.6" y1="444.3" x2="1105.6" y2="530.1"/>
<line class="st0" x1="1109.9" y1="491.2" x2="1109.9" y2="452.8"/>
<line class="st0" x1="1109.9" y1="577.5" x2="1109.9" y2="499.7"/>
<line class="st0" x1="1114.1" y1="538.6" x2="1114.1" y2="586.1"/>
<line class="st0" x1="1114.1" y1="444.3" x2="1114.1" y2="530.1"/>
<line class="st0" x1="1063.1" y1="538.6" x2="1063.1" y2="586.1"/>
<line class="st0" x1="1063.1" y1="444.3" x2="1063.1" y2="530.1"/>
<line class="st0" x1="1067.3" y1="491.2" x2="1067.3" y2="452.8"/>
<line class="st0" x1="1067.3" y1="577.5" x2="1067.3" y2="499.7"/>
<line class="st0" x1="1071.6" y1="538.6" x2="1071.6" y2="586.1"/>
<line class="st0" x1="1071.6" y1="444.3" x2="1071.6" y2="530.1"/>
<line class="st0" x1="1075.8" y1="491.2" x2="1075.8" y2="452.8"/>
<line class="st0" x1="1075.8" y1="577.5" x2="1075.8" y2="499.7"/>
<line class="st0" x1="1080.1" y1="538.6" x2="1080.1" y2="586.1"/>
<line class="st0" x1="1080.1" y1="444.3" x2="1080.1" y2="530.1"/>
<line class="st0" x1="1084.3" y1="491.2" x2="1084.3" y2="452.8"/>
<line class="st0" x1="1084.3" y1="577.5" x2="1084.3" y2="499.7"/>
<line class="st0" x1="1088.6" y1="538.6" x2="1088.6" y2="586.1"/>
<line class="st0" x1="1088.6" y1="444.3" x2="1088.6" y2="530.1"/>
<line class="st0" x1="1092.8" y1="491.2" x2="1092.8" y2="452.8"/>
<line class="st0" x1="1092.8" y1="577.5" x2="1092.8" y2="499.7"/>
<line class="st0" x1="1097.1" y1="538.6" x2="1097.1" y2="586.1"/>
<line class="st0" x1="1097.1" y1="444.3" x2="1097.1" y2="530.1"/>
<line class="st0" x1="1101.4" y1="491.2" x2="1101.4" y2="452.8"/>
<line class="st0" x1="1101.4" y1="577.5" x2="1101.4" y2="499.7"/>
<line class="st0" x1="1105.6" y1="538.6" x2="1105.6" y2="586.1"/>
<line class="st1" x1="1174.2" y1="444.3" x2="1157.7" y2="444.3"/>
<line class="st1" x1="1140.1" y1="444.3" x2="1024.1" y2="444.3"/>
<line class="st1" x1="1006.6" y1="444.3" x2="990.1" y2="444.3"/>
<line class="st1" x1="972.5" y1="444.3" x2="956.1" y2="444.3"/>
<line class="st1" x1="938.4" y1="444.3" x2="922.1" y2="444.3"/>
<line class="st1" x1="905" y1="444.3" x2="888.1" y2="444.3"/>
<line class="st1" x1="871.1" y1="444.3" x2="854.2" y2="444.3"/>
<line class="st1" x1="837" y1="444.3" x2="709.8" y2="444.3"/>
<line class="st1" x1="692.4" y1="444.3" x2="675.6" y2="444.3"/>
<line class="st1" x1="658.3" y1="444.3" x2="641.7" y2="444.3"/>
<line class="st1" x1="624.2" y1="444.3" x2="607.6" y2="444.3"/>
<line class="st1" x1="590.5" y1="444.3" x2="463.2" y2="444.3"/>
<line class="st1" x1="446.1" y1="444.3" x2="429.4" y2="444.3"/>
<line class="st1" x1="412" y1="444.3" x2="395.4" y2="444.3"/>
<line class="st1" x1="378" y1="444.3" x2="361.3" y2="444.3"/>
<line class="st1" x1="344" y1="444.3" x2="327.2" y2="444.3"/>
<line class="st1" x1="309.9" y1="444.3" x2="293.2" y2="444.3"/>
<line class="st1" x1="276.1" y1="444.3" x2="160.1" y2="444.3"/>
<line class="st1" x1="143.1" y1="444.3" x2="126.5" y2="444.3"/>
<line class="st1" x1="109" y1="444.3" x2="97.9" y2="444.3"/>
<rect x="400.2" y="520.1" class="st0" width="37.7" height="23.5"/>
<line class="st1" x1="89.2" y1="463.3" x2="89.2" y2="457.5"/>
<line class="st1" x1="89.2" y1="452.8" x2="89.2" y2="452"/>
<polyline class="st1" points="89.2,450.5 89.2,446.8 89.2,445.5 "/>
<line class="st1" x1="89.2" y1="446.1" x2="89.2" y2="447.4"/>
<polyline class="st1" points="160.1,444.3 160,444.4 160,445.2 160,446.7 160,450.4 160,451.9 160,452.7 159.7,452.9 157.7,452.9 
	154.5,452.9 150.8,452.9 147.2,452.9 144.4,452.9 143.1,452.9 143.1,452.5 143.1,451.3 143.1,449.6 143.1,445.9 143.1,444.7 
	143.1,444.3 "/>
<polyline class="st1" points="126.5,444.3 126.1,444.4 126.1,445.3 126.1,448.6 126.1,451.9 126.1,452.8 125.7,452.9 123.5,452.9 
	120.3,452.9 113,452.9 110.2,452.9 109.1,452.9 109,452.5 109,451.2 109,447.6 109,445.9 109,444.7 109,444.3 "/>
<polyline class="st1" points="463.2,444.3 463.2,444.5 463.2,445.4 463.2,452.1 463.2,452.8 462.7,452.9 460.4,452.9 457,452.9 
	449.8,452.9 447.2,452.9 446.5,452.9 446.2,452.9 446.2,452.3 446.2,451 446.2,447.4 446.2,445.8 446.2,444.6 446.1,444.3 "/>
<polyline class="st1" points="429.4,444.3 429.2,444.5 429.2,445.5 429.2,447 429.2,450.7 429.2,452.2 429.2,452.8 428.5,452.9 
	426.2,452.9 419.1,452.9 415.6,452.9 413.1,452.9 412.4,452.9 412.2,452.9 412.2,452.3 412.2,449.2 412.2,445.7 412.2,444.6 
	412,444.3 "/>
<polyline class="st1" points="395.4,444.3 395.1,444.6 395.1,445.5 395.1,449 395.1,452.2 395.1,452.8 395.1,452.9 394.4,452.9 
	392,452.9 388.6,452.9 381.4,452.9 379,452.9 378.3,452.9 378.2,452.8 378.2,452.2 378.2,450.8 378.2,447.3 378.2,445.6 
	378.2,444.6 378,444.3 "/>
<polyline class="st1" points="361.3,444.3 361.2,444.6 361.2,445.6 361.2,447.3 361.2,450.8 361.2,452.2 361.2,452.8 361,452.9 
	360.4,452.9 357.9,452.9 350.7,452.9 347.3,452.9 344.9,452.9 344.3,452.9 344.1,452.8 344.1,452.2 344.1,449 344.1,445.5 
	344.1,444.6 344,444.3 "/>
<polyline class="st1" points="327.2,444.3 327.1,444.6 327.1,445.7 327.1,449.2 327.1,452.3 327.1,452.9 326.9,452.9 326.2,452.9 
	323.7,452.9 320.2,452.9 313.1,452.9 310.8,452.9 310.2,452.8 310.2,452.2 310.2,450.7 310.2,447 310.2,445.5 310.2,444.5 
	309.9,444.3 "/>
<polyline class="st1" points="709.8,444.3 709.7,444.6 709.7,445.8 709.7,447.4 709.7,451 709.7,452.3 709.7,452.9 709.4,452.9 
	708.6,452.9 706,452.9 698.7,452.9 695.5,452.9 693.2,452.9 692.6,452.8 692.6,452.1 692.6,445.4 692.6,444.5 692.4,444.3 "/>
<polyline class="st1" points="675.6,444.3 675.6,444.6 675.6,445.9 675.6,449.4 675.6,452.4 675.6,452.9 674.5,452.9 671.9,452.9 
	668.3,452.9 661.3,452.9 659.2,452.9 658.7,452.8 658.7,452 658.7,450.5 658.7,446.8 658.7,445.3 658.7,444.5 658.3,444.3 "/>
<polyline class="st1" points="641.7,444.3 641.6,444.7 641.6,445.9 641.6,447.6 641.6,451.2 641.6,452.5 641.6,452.9 640.4,452.9 
	637.7,452.9 630.3,452.9 627.2,452.9 625,452.9 624.6,452.8 624.6,451.9 624.6,448.6 624.6,445.3 624.6,444.4 624.2,444.3 "/>
<polyline class="st1" points="1024.1,444.3 1024.1,444.7 1024.1,445.9 1024.1,449.6 1024.1,451.3 1024.1,452.5 1024.1,452.9 
	1022.8,452.9 1020,452.9 1016.4,452.9 1012.7,452.9 1009.4,452.9 1007.5,452.9 1007.1,452.7 1007.1,451.9 1007.1,450.4 
	1007.1,446.7 1007.1,445.2 1007.1,444.4 1006.6,444.3 "/>
<polyline class="st1" points="990.1,444.3 990.1,444.8 990.1,447.8 990.1,451.3 990.1,452.6 990,452.9 988.6,452.9 985.8,452.9 
	978.5,452.9 975.3,452.9 973.4,452.9 973.1,452.7 973.1,451.8 973.1,445.1 973.1,444.4 972.5,444.3 "/>
<polyline class="st1" points="956.1,444.3 956.1,444.9 956.1,446.1 956.1,449.8 956.1,451.4 956.1,452.6 956,452.9 954.5,452.9 
	951.7,452.9 948,452.9 944.3,452.9 941.2,452.9 939.3,452.9 939.1,452.7 939.1,451.7 939.1,450.2 939.1,446.5 939.1,445 
	939.1,444.4 938.4,444.3 "/>
<polyline class="st1" points="922.1,444.3 922.1,444.9 922.1,448 922.1,451.5 922.1,452.6 921.9,452.9 920.4,452.9 917.4,452.9 
	910.1,452.9 907,452.9 905.3,452.9 905,452.6 905,451.7 905,448.2 905,445 905,444.4 905,444.3 "/>
<polyline class="st1" points="888.1,444.3 888.1,445 888.1,446.4 888.1,449.9 888.1,451.6 888.1,452.6 887.9,452.9 886.3,452.9 
	883.2,452.9 879.6,452.9 875.9,452.9 872.9,452.9 871.2,452.9 871.1,452.6 871.1,451.6 871.1,449.9 871.1,446.4 871.1,445 
	871.1,444.3 "/>
<polyline class="st1" points="1191.2,444.3 1191.2,444.4 1191.2,445.1 1191.2,451.8 1191.2,452.7 1190.9,452.9 1189,452.9 
	1185.8,452.9 1178.5,452.9 1175.7,452.9 1174.3,452.9 1174.2,452.6 1174.2,451.3 1174.2,447.8 1174.2,444.8 1174.2,444.3 "/>
<polygon class="st0" points="657.4,546.3 657.2,546.3 656.7,546.3 655.9,546.3 654.9,546.3 653.7,546.3 652.4,546.3 651,546.3 
	649.6,546.3 648.2,546.3 646.9,546.3 645.7,546.3 644.7,546.3 643.9,546.3 643.4,546.3 643.2,546.3 642.3,546.3 641.4,546.1 
	640.5,545.9 639.7,545.6 638.9,545.2 638.2,544.7 637.5,544.1 636.9,543.5 636.4,542.9 635.9,542.1 635.5,541.3 635.2,540.5 
	634.9,539.7 634.8,538.8 634.7,537.8 634.7,537.7 634.7,537.4 634.7,537 634.7,536.3 634.7,535.6 634.7,534.8 634.7,534 
	634.7,533.2 634.7,532.3 634.7,531.5 634.7,530.8 634.7,530.2 634.7,529.7 634.7,529.4 634.7,529.3 634.8,528.4 634.9,527.5 
	635.2,526.7 635.5,525.8 635.9,525.1 636.4,524.3 636.9,523.6 637.5,523 638.2,522.5 638.9,522 639.7,521.6 640.5,521.3 641.4,521 
	642.3,520.9 643.2,520.8 643.4,520.8 643.9,520.8 644.7,520.8 645.7,520.8 646.9,520.8 648.2,520.8 649.6,520.8 651,520.8 
	652.4,520.8 653.7,520.8 654.9,520.8 655.9,520.8 656.7,520.8 657.2,520.8 657.4,520.8 658.3,520.9 659.2,521 660.1,521.3 
	660.9,521.6 661.7,522 662.4,522.5 663.1,523 663.7,523.6 664.3,524.3 664.7,525.1 665.1,525.8 665.5,526.7 665.7,527.5 
	665.9,528.4 665.9,529.3 665.9,529.4 665.9,529.7 665.9,530.2 665.9,530.8 665.9,531.5 665.9,532.3 665.9,533.2 665.9,534 
	665.9,534.8 665.9,535.6 665.9,536.3 665.9,537 665.9,537.4 665.9,537.7 665.9,537.8 665.9,538.8 665.7,539.7 665.5,540.5 
	665.1,541.3 664.7,542.1 664.3,542.9 663.7,543.5 663.1,544.1 662.4,544.7 661.7,545.2 660.9,545.6 660.1,545.9 659.2,546.1 
	658.3,546.3 "/>
<path d="M102.3,72.2h4.5c-0.6,3.1-1.9,5.5-4.1,7.3c-2.1,1.8-4.8,2.7-7.8,2.7c-3.6,0-6.6-1.2-9.1-3.6c-2.4-2.4-3.7-5.5-3.7-9.1
	c0-3.6,1.2-6.7,3.7-9.1c2.5-2.4,5.5-3.6,9.1-3.6c3.1,0,5.7,0.9,7.8,2.7c2.2,1.8,3.5,4.2,4.1,7.3h-4.5c-1-3.7-3.6-5.9-7.5-5.9
	c-2.4,0-4.4,0.8-6,2.4c-1.6,1.6-2.4,3.7-2.4,6.2c0,2.5,0.8,4.6,2.4,6.2c1.6,1.6,3.6,2.4,6,2.4C98.7,78.1,101.4,76,102.3,72.2z"/>
<path d="M125.3,79.7c-1.7,1.7-3.9,2.6-6.4,2.6c-2.6,0-4.8-0.9-6.5-2.6c-1.7-1.7-2.6-3.9-2.6-6.5c0-2.6,0.9-4.7,2.6-6.4
	c1.7-1.7,3.9-2.6,6.5-2.6c2.6,0,4.8,0.9,6.4,2.6c1.7,1.7,2.6,3.8,2.6,6.4C127.9,75.8,127,78,125.3,79.7z M118.8,68.1
	c-2.9,0-4.9,2.2-4.9,5.1c0,1.5,0.5,2.7,1.4,3.7c0.9,1,2.1,1.5,3.6,1.5c1.4,0,2.6-0.5,3.5-1.5s1.4-2.3,1.4-3.7
	C123.7,70.3,121.7,68.1,118.8,68.1z"/>
<path d="M146.4,66.4c1.4,1.5,2.1,3.5,2.1,5.9v9.4h-4.1v-9.1c0-3-1.6-4.6-4.2-4.6c-1.6,0-3.1,0.8-4.4,2.4v11.3h-4.2v-17h4.2v1.4
	c1.5-1.3,3.3-1.9,5.3-1.9C143.2,64.2,145,64.9,146.4,66.4z"/>
<path d="M155.7,76c0.3,1.9,1.7,2.9,4.2,2.9c2,0,3.4-0.7,3.4-1.9c0-0.9-0.7-1.6-2.1-1.8l-3.7-0.6c-3.3-0.5-5-2.2-5-4.9
	c0-3.3,2.8-5.5,7.2-5.5c1.6,0,3.1,0.3,4.7,1.1c1.5,0.8,2.7,2.4,2.8,4.6l-3.9,0c-0.1-1.6-1.6-2.5-3.7-2.5c-1.9,0-3.1,0.8-3.1,1.8
	c0,1,0.8,1.7,2.4,1.9l3.2,0.5c3.4,0.5,5.1,2.2,5.1,4.9c0,3.6-3.1,5.6-7.5,5.6c-4.3,0-7.5-1.9-7.9-6.3L155.7,76z"/>
<path d="M185.6,79.7c-1.7,1.7-3.9,2.6-6.4,2.6c-2.6,0-4.8-0.9-6.5-2.6c-1.7-1.7-2.6-3.9-2.6-6.5c0-2.6,0.9-4.7,2.6-6.4
	c1.7-1.7,3.9-2.6,6.5-2.6c2.6,0,4.8,0.9,6.4,2.6c1.7,1.7,2.6,3.8,2.6,6.4C188.2,75.8,187.3,78,185.6,79.7z M179.2,68.1
	c-2.9,0-4.9,2.2-4.9,5.1c0,1.5,0.5,2.7,1.4,3.7c0.9,1,2.1,1.5,3.6,1.5c1.4,0,2.6-0.5,3.5-1.5s1.4-2.3,1.4-3.7
	C184.1,70.3,182,68.1,179.2,68.1z"/>
<path d="M196.3,81.7h-4.2V56.2h4.2V81.7z"/>
<path d="M218.1,81.7H214v-1.2c-1.5,1-3.2,1.6-5.2,1.6c-2.4,0-4.4-0.9-6.1-2.6c-1.7-1.7-2.5-3.8-2.5-6.3c0-2.5,0.8-4.6,2.5-6.3
	c1.7-1.8,3.7-2.6,6.1-2.6c2,0,3.7,0.5,5.2,1.6v-1.2h4.1V81.7z M214,76.1v-5.8c-1.1-1.6-2.6-2.4-4.6-2.4c-1.4,0-2.6,0.5-3.6,1.6
	c-1,1-1.4,2.3-1.4,3.7c0,1.4,0.5,2.7,1.4,3.7c1,1,2.2,1.5,3.6,1.5C211.3,78.5,212.9,77.8,214,76.1z"/>
<path d="M236.8,74.1c0.4,2.5,2.3,3.8,5.6,3.8c2.7,0,4.6-1,4.6-2.5c0-1.2-0.9-2.1-2.7-2.4l-4.9-0.8c-4.5-0.7-6.7-3-6.7-6.5
	c0-4.5,3.8-7.3,9.6-7.3c2.2,0,4.2,0.4,6.2,1.4c2.1,1,3.6,3.2,3.8,6.1l-5.1,0c-0.2-2.2-2.2-3.3-4.9-3.3c-2.5,0-4.1,1.1-4.1,2.4
	c0,1.3,1.1,2.3,3.2,2.6l4.2,0.7c4.5,0.7,6.8,3,6.8,6.6c0,4.8-4.1,7.5-10,7.5c-5.8,0-10-2.6-10.5-8.4L236.8,74.1z"/>
<path d="M277.1,61.3c1.8,2,2.7,4.6,2.7,7.9v12.5h-5.5V69.6c0-4-2.1-6.2-5.6-6.2c-2.1,0-4.1,1.1-5.9,3.3v15.1h-5.6V59h5.6v1.9
	c2.1-1.7,4.4-2.6,7-2.6C272.8,58.3,275.2,59.3,277.1,61.3z"/>
<path d="M308.5,81.7h-5.5v-1.6c-2,1.4-4.3,2.1-7,2.1c-3.2,0-5.9-1.2-8.1-3.5c-2.2-2.3-3.3-5.1-3.3-8.4c0-3.3,1.1-6.1,3.3-8.4
	c2.3-2.4,4.9-3.5,8.1-3.5c2.7,0,5,0.7,7,2.1V59h5.5V81.7z M302.9,74.3v-7.7c-1.4-2.2-3.5-3.2-6.1-3.2c-1.9,0-3.5,0.7-4.8,2.1
	c-1.3,1.4-1.9,3.1-1.9,5c0,1.9,0.6,3.6,1.9,5c1.3,1.4,2.9,2.1,4.8,2.1C299.4,77.5,301.5,76.4,302.9,74.3z"/>
<path d="M320.6,76.7v5.1h-5.5V47.7h5.5v21.7l10-10.3h7.1l-9.1,9.4l10.4,13.3h-7.2l-7.1-9.3L320.6,76.7z"/>
<path d="M362.8,72.6L362.8,72.6h-17.4c0.7,3,3,5,6.6,5c2.3,0,3.8-0.7,4.6-2.1h5.9c-1.3,4.2-5.5,6.8-10.7,6.8c-3.6,0-6.5-1.1-8.7-3.4
	c-2.2-2.3-3.3-5.1-3.3-8.5s1.1-6.2,3.3-8.5c2.3-2.3,5.1-3.4,8.7-3.4c3.2,0,5.8,1.1,7.9,3.2c2.1,2.2,3.2,4.9,3.2,8.3
	C362.9,71.1,362.8,72,362.8,72.6z M345.3,68.4h12c-0.4-3.3-2.5-5.2-5.8-5.2C348.1,63.2,345.9,65.3,345.3,68.4z"/>
<path d="M107.9,135.1h-4.4v-14.9l-6.8,11h-2.6l-6.9-11.1l0.1,15h-4.4v-24.5H86l9.4,15.2l9.4-15.2h3.1V135.1z"/>
<path d="M122.6,110.7c3.8,0,6.9,1.2,9.4,3.5c2.5,2.3,3.7,5.2,3.7,8.7c0,3.6-1.2,6.5-3.7,8.9c-2.5,2.3-5.6,3.5-9.4,3.5h-9.2v-24.5
	H122.6z M122.6,131.2c2.4,0,4.5-0.8,6.2-2.4c1.7-1.6,2.5-3.6,2.5-5.9c0-2.3-0.8-4.2-2.5-5.8c-1.7-1.5-3.7-2.3-6.2-2.3h-4.9v16.5
	H122.6z"/>
<path d="M144.4,121.7H156v4h-11.6v9.4h-4.3v-24.5h17.5v4h-13.2V121.7z"/>
<path d="M186.8,128.3c0,2.1-0.8,3.9-2.4,5.3c-1.5,1.4-3.6,2.1-6.1,2.1c-5.2,0-8.2-2.6-8.9-7.1h4.2c0.5,2.3,2.1,3.4,4.7,3.4
	c2.6,0,4.5-1.5,4.5-3.6c0-2.2-1.9-3.6-4.8-3.6H176v-3.5h1.9c2.4,0,4-1.5,4-3.6c0-2.2-1.5-3.6-3.8-3.6c-2.1,0-3.7,1.3-3.9,3.3H170
	c0.2-2.1,1-3.8,2.5-5.1c1.5-1.3,3.4-1.9,5.7-1.9c2.3,0,4.2,0.7,5.7,2.1c1.4,1.4,2.2,3.1,2.2,5.3c0,2.3-0.9,4.1-2.7,5.3
	C185.6,123.9,186.8,125.8,186.8,128.3z"/>
<path d="M216.6,119.8c1.4,1.5,2.1,3.5,2.1,5.9v9.4h-4.2V126c0-3-1.5-4.6-4.1-4.6c-1.5,0-2.8,0.8-3.9,2.3c0.1,0.6,0.2,1.3,0.2,2.1
	v9.4h-4.1V126c0-3-1.5-4.6-4.1-4.6c-1.4,0-2.6,0.8-3.7,2.3v11.5h-4.2v-17h4.2v1.2c1.2-1.2,2.7-1.7,4.6-1.7c2.3,0,4.1,0.9,5.5,2.6
	c1.8-1.7,3.9-2.6,6.4-2.6C213.4,117.6,215.2,118.3,216.6,119.8z"/>
<path d="M249.3,119.8c1.4,1.5,2.1,3.5,2.1,5.9v9.4h-4.2V126c0-3-1.5-4.6-4.1-4.6c-1.5,0-2.8,0.8-3.9,2.3c0.1,0.6,0.2,1.3,0.2,2.1
	v9.4h-4.1V126c0-3-1.5-4.6-4.1-4.6c-1.4,0-2.6,0.8-3.7,2.3v11.5h-4.2v-17h4.2v1.2c1.2-1.2,2.7-1.7,4.6-1.7c2.3,0,4.1,0.9,5.5,2.6
	c1.8-1.7,3.9-2.6,6.4-2.6C246.2,117.6,247.9,118.3,249.3,119.8z"/>
</svg>
